# xmcd
#
# Track frame offsets: 
#        150
#        33444
#        47452
#        66249
#        81964
#        102342
#        117601
#        133778
#        147713
#        167399
#        186446
#        205569
#        226156
#        241136
#        249556
#
# Disc length: 3479 seconds
#
# Revision: 0
# Processed by: cddbd v1.5.2PL0 Copyright (c) Steve Scherf et al.
# Submitted via: ExactAudioCopy v1.0b1
#
DISCID=d20d950f
DTITLE=Ayo - Billy Eve
DYEAR=2011
DGENRE=Soul
TTITLE0=How Many People?
TTITLE1=I'm gonna dance
TTITLE2=Black Spoon
TTITLE3=I can't
TTITLE4=Flowers
TTITLE5=Real Love
TTITLE6=Julia
TTITLE7=My Man
TTITLE8=It's Too Late
TTITLE9=Who Are They?
TTITLE10=We've go to
TTITLE11=Before (After)
TTITLE12=It Hurts (Featuring Matthieu Chedid)
TTITLE13=Believe (Featuring Soul Williams)
TTITLE14=I Want You Back
EXTD=
EXTT0=
EXTT1=
EXTT2=
EXTT3=
EXTT4=
EXTT5=
EXTT6=
EXTT7=
EXTT8=
EXTT9=
EXTT10=
EXTT11=
EXTT12=
EXTT13=
EXTT14=
PLAYORDER=
